<?xml version="1.0" encoding="UTF-8" standalone="no"?>
<!-- Created with Inkscape (http://www.inkscape.org/) -->

<svg
   width="512"
   height="512"
   viewBox="0 0 512 512"
   version="1.1"
   id="svg1"
   inkscape:version="1.4.2 (f4327f4, 2025-05-13)"
   sodipodi:docname="logo.svg"
   inkscape:export-filename="logo.png"
   inkscape:export-xdpi="96"
   inkscape:export-ydpi="96"
   xmlns:inkscape="http://www.inkscape.org/namespaces/inkscape"
   xmlns:sodipodi="http://sodipodi.sourceforge.net/DTD/sodipodi-0.dtd"
   xmlns:xlink="http://www.w3.org/1999/xlink"
   xmlns="http://www.w3.org/2000/svg"
   xmlns:svg="http://www.w3.org/2000/svg">
  <sodipodi:namedview
     id="namedview1"
     pagecolor="#505050"
     bordercolor="#ffffff"
     borderopacity="1"
     inkscape:showpageshadow="0"
     inkscape:pageopacity="0"
     inkscape:pagecheckerboard="1"
     inkscape:deskcolor="#505050"
     inkscape:document-units="px"
     inkscape:zoom="1.5097656"
     inkscape:cx="341.11255"
     inkscape:cy="272.55887"
     inkscape:window-width="1920"
     inkscape:window-height="991"
     inkscape:window-x="-9"
     inkscape:window-y="-9"
     inkscape:window-maximized="1"
     inkscape:current-layer="svg1" />
  <defs
     id="defs1">
    <rect
       x="37.09185"
       y="121.87322"
       width="210.62872"
       height="321.90427"
       id="rect1" />
    <inkscape:path-effect
       effect="fill_between_many"
       method="originald"
       linkedpaths="#path1,0,1|#path2,0,1|"
       id="path-effect2" />
    <inkscape:path-effect
       effect="fill_between_many"
       method="originald"
       linkedpaths="#path2,0,1|#path1,0,1|"
       id="path-effect3" />
  </defs>
  <g
     id="g16"
     style="display:inline">
    <path
       id="path8"
       style="fill:#000000;fill-opacity:1"
       d="M 100,0 A 100,100 0 0 0 0,100 100,100 0 0 0 100,200 h 75 v 112 h 25 V 200 100 A 100,100 0 0 0 100,0 Z m 0,25 a 75,75 0 0 1 75,75 v 75 H 100 A 75,75 0 0 1 25,100 75,75 0 0 1 100,25 Z" />
    <circle
       style="fill:#42993d;fill-opacity:1;stroke-width:0.993419"
       id="path14"
       cx="100"
       cy="100"
       r="37.5" />
  </g>
  <use
     x="0"
     y="0"
     xlink:href="#g16"
     id="use16"
     transform="rotate(-90,256,256)" />
  <use
     x="0"
     y="0"
     xlink:href="#g16"
     id="use17"
     transform="rotate(180,256,256)" />
  <use
     x="0"
     y="0"
     xlink:href="#use17"
     id="use18"
     transform="rotate(-90,256,256)" />
  <path
     style="fill:#00ffff;fill-opacity:1;stroke-width:0.662354"
     d="M 200.03105,256 V 200.03105 H 256 311.96896 V 256 311.96896 H 256 200.03105 Z"
     id="path18" />
</svg>
